Set in the near future, where robot boxing is a top sport, a struggling promoter feels he's found a champion in a discarded robot. During his hopeful rise to the top, he discovers he has an 11-year-old son who wants to know his father.

Director:
Shawn Levy
Writers:
John Gatins (screenplay), Dan Gilroy (story), and 2 more credits »
Stars:
Hugh Jackman, Evangeline Lilly and Dakota Goyo 

Media info:

General
Unique ID                        : 238956148003131857796845314338415239513 (0xB3C547B38CCE8D0CBAD5BEE15C58E159)
Complete name                    : E:\torrent2\Real.Steal.2011.BluRayrip.MKV.1080p.AVC.DTS 5.1.ACB-Team\Real.Steal.2011.BluRayrip.MKV.1080p.AVC.DTS 5.1.ACB-Team.mkv
Format                           : Matroska
Format version                   : Version 2
File size                        : 12.0 GiB
Duration                         : 2h 6mn
Overall bit rate mode            : Variable
Overall bit rate                 : 13.6 Mbps
Movie name                       : movie
Encoded date                     : UTC 2012-01-15 07:56:11
Writing application              : mkvmerge v3.2.0 ('Beginnings') built on Feb 12 2010 16:46:17
Writing library                  : libebml v0.7.9 + libmatroska v0.8.1

Video
ID                               : 1
Format                           : AVC
Format/Info                      : Advanced Video Codec
Format profile                   : High@L4.1
Format settings, CABAC           : Yes
Format settings, ReFrames        : 2 frames
Muxing mode                      : Container profile=Unknown@0.0
Codec ID                         : V_MPEG4/ISO/AVC
Duration                         : 2h 6mn
Bit rate mode                    : Variable
Bit rate                         : 11.7 Mbps
Maximum bit rate                 : 35.0 Mbps
Width                            : 1 920 pixels
Height                           : 1 080 pixels
Display aspect ratio             : 16:9
Frame rate                       : 23.976 fps
Color space                      : YUV
Chroma subsampling               : 4:2:0
Bit depth                        : 8 bits
Scan type                        : Progressive
Bits/(Pixel*Frame)               : 0.235
Stream size                      : 10.5 GiB (87%)
Writing library                  : x264 core 118 r2085 8a62835
Encoding settings                : cabac=1 / ref=1 / deblock=1:0:0 / analyse=0x3:0x3 / me=dia / subme=1 / psy=1 / psy_rd=1.00:0.00 / mixed_ref=0 / me_range=16 / chroma_me=1 / trellis=0 / 8x8dct=1 / cqm=0 / deadzone=21,11 / fast_pskip=1 / chroma_qp_offset=0 / threads=3 / sliced_threads=0 / slices=4 / nr=0 / decimate=1 / interlaced=0 / bluray_compat=1 / constrained_intra=0 / bframes=3 / b_pyramid=0 / b_adapt=1 / b_bias=0 / direct=1 / weightb=1 / open_gop=0 / weightp=1 / keyint=24 / keyint_min=1 / scenecut=40 / intra_refresh=0 / rc_lookahead=0 / rc=abr / mbtree=0 / bitrate=11671 / ratetol=1.0 / qcomp=0.60 / qpmin=0 / qpmax=69 / qpstep=4 / vbv_maxrate=35000 / vbv_bufsize=30000 / nal_hrd=vbr / ip_ratio=1.10 / pb_ratio=1.10 / aq=1:1.00
Default                          : No
Forced                           : No

Audio
ID                               : 2
Format                           : DTS
Format/Info                      : Digital Theater Systems
Codec ID                         : A_DTS
Duration                         : 2h 6mn
Bit rate mode                    : Constant
Bit rate                         : 1 510 Kbps
Channel(s)                       : 6 channels
Channel positions                : Front: L C R, Side: L R, LFE
Sampling rate                    : 48.0 KHz
Bit depth                        : 24 bits
Compression mode                 : Lossy
Stream size                      : 1.34 GiB (11%)
Language                         : English
Default                          : Yes
Forced                           : No

Text #1
ID                               : 3
Format                           : VobSub
Muxing mode                      : zlib
Codec ID                         : S_VOBSUB
Codec ID/Info                    : The same subtitle format used on DVDs
Language                         : English
Default                          : Yes
Forced                           : No

Text #2
ID                               : 4
Format                           : VobSub
Muxing mode                      : zlib
Codec ID                         : S_VOBSUB
Codec ID/Info                    : The same subtitle format used on DVDs
Language                         : French
Default                          : No
Forced                           : No

Text #3
ID                               : 5
Format                           : VobSub
Muxing mode                      : zlib
Codec ID                         : S_VOBSUB
Codec ID/Info                    : The same subtitle format used on DVDs
Language                         : Spanish
Default                          : No
Forced                           : No

Text #4
ID                               : 6
Format                           : UTF-8
Codec ID                         : S_TEXT/UTF8
Codec ID/Info                    : UTF-8 Plain Text
Language                         : Dutch
Default                          : No
Forced                           : No

Menu
00:00:00.000                     : en:00:00:00.000
00:03:00.471                     : en:00:03:00.471
00:10:38.304                     : en:00:10:38.304
00:18:50.546                     : en:00:18:50.546
00:24:29.885                     : en:00:24:29.885
00:34:14.760                     : en:00:34:14.760
00:41:22.354                     : en:00:41:22.354
00:48:46.131                     : en:00:48:46.131
00:52:08.708                     : en:00:52:08.708
00:57:15.014                     : en:00:57:15.014
01:05:01.230                     : en:01:05:01.230
01:12:33.974                     : en:01:12:33.974
01:18:26.993                     : en:01:18:26.993
01:26:28.516                     : en:01:26:28.516
01:32:50.773                     : en:01:32:50.773
01:39:19.703                     : en:01:39:19.703
01:48:22.662                     : en:01:48:22.662
01:52:26.864                     : en:01:52:26.864
01:57:21.867                     : en:01:57:21.867
02:00:50.326                     : en:02:00:50.326

